<?xml version="1.0" encoding="UTF-8" standalone="no"?>
<svg
   xmlns:dc="http://purl.org/dc/elements/1.1/"
   xmlns:cc="http://creativecommons.org/ns#"
   xmlns:rdf="http://www.w3.org/1999/02/22-rdf-syntax-ns#"
   xmlns:svg="http://www.w3.org/2000/svg"
   xmlns="http://www.w3.org/2000/svg"
   xmlns:sodipodi="http://sodipodi.sourceforge.net/DTD/sodipodi-0.dtd"
   xmlns:inkscape="http://www.inkscape.org/namespaces/inkscape"
   version="1.1"
   id="svg2"
   xml:space="preserve"
   width="160"
   height="160"
   viewBox="0 0 160 160"
   sodipodi:docname="Logo.ai"><metadata
     id="metadata8"><rdf:RDF><cc:Work
         rdf:about=""><dc:format>image/svg+xml</dc:format><dc:type
           rdf:resource="http://purl.org/dc/dcmitype/StillImage" /></cc:Work></rdf:RDF></metadata><defs
     id="defs6"><clipPath
       clipPathUnits="userSpaceOnUse"
       id="clipPath20"><path
         d="M 0,120 H 120 V 0 H 0 Z"
         id="path18" /></clipPath></defs>
    <g
     id="g10"
     inkscape:groupmode="layer"
     inkscape:label="Logo"
     transform="matrix(1.3333333,0,0,-1.3333333,0,160)"><g
         id="g16"
         clip-path="url(#clipPath20)"><g
           id="g22"
           transform="translate(50.83,100.1)"><path
             d="m 0,0 c 0,0 2.16,3.6 4.32,1.2 2.16,-2.4 11.52,-14.76 16.8,-29.04 5.28,-14.28 0.95,-24.4 -0.72,-30.24 -1.92,-6.72 -7.8,-14.4 -10.08,-16.32 -2.28,-1.92 -2.76,-2.04 -0.24,-4.8 2.52,-2.76 7.32,-7.8 8.64,-12.24 1.32,-4.44 3.6,-4.08 4.56,-3.6 0.96,0.48 2.04,1.8 2.4,9.36 0.36,7.56 -0.84,27.72 3.12,41.04 3.96,13.32 11.64,16.92 21.84,14.64 10.2,-2.28 15.1,-11.65 14.4,-22.56 -0.44,-6.91 -3.6,-11.64 -10.56,-11.04 -6.96,0.6 -8.88,6.6 -7.44,9.84 1.44,3.24 2.04,3.72 4.08,3.36 2.04,-0.36 2.04,-2.16 2.4,-4.08 0.36,-1.92 1.92,-4.32 4.32,-2.64 2.4,1.68 1.92,10.68 -2.16,16.56 -4.08,5.88 -10.08,5.64 -15.6,1.2 -5.52,-4.44 -6.48,-16.2 -6.72,-22.56 -0.24,-6.36 -0.84,-20.64 -0.72,-26.64 0.12,-6 -2.52,-11.4 -8.4,-12.72 -5.88,-1.32 -22.55,-1.26 -27.6,-1.2 -1.56,0.02 -4.08,-1.08 -2.88,3.12 1.2,4.2 1.79,6.6 1.2,12.72 -0.36,3.72 -0.36,5.4 -7.2,4.56 -4.17,-0.51 -13.68,0.24 -21.6,5.04 -2.4,1.92 -2.88,2.4 -6.24,2.64 0,0 -2.52,0.24 -2.4,3.36 0.12,3.12 0,3.24 -1.44,7.2 -1.44,3.96 -3.72,10.08 -2.16,20.64 1.56,10.56 9.48,20.76 18.24,24.24 8.76,3.48 10.21,2.21 13.68,2.88 C -12.02,-15.67 -6,-5.52 0,0"
             style="fill:#DF6D4A;fill-opacity:1;fill-rule:evenodd;stroke:none"
             id="path24" /></g></g></g></svg>
