<?xml version="1.0" ?><svg fill="#FFFFFF" viewBox="0 0 48 48" xmlns="http://www.w3.org/2000/svg"><title/><g data-name="34-Money" id="_34-Money"><path d="M45,0H3A3,3,0,0,0,0,3V45a3,3,0,0,0,3,3H45a3,3,0,0,0,3-3V3A3,3,0,0,0,45,0Zm1,45a1,1,0,0,1-1,1H3a1,1,0,0,1-1-1V41.82A3,3,0,0,0,3,42H45a3,3,0,0,0,1-.18Zm0-6a1,1,0,0,1-1,1H3a1,1,0,0,1-1-1V35.82A3,3,0,0,0,3,36H45a3,3,0,0,0,1-.18Zm0-6a1,1,0,0,1-1,1H3a1,1,0,0,1-1-1V29.82A3,3,0,0,0,3,30H45a3,3,0,0,0,1-.18Zm0-6a1,1,0,0,1-1,1H3a1,1,0,0,1-1-1V3A1,1,0,0,1,3,2H45a1,1,0,0,1,1,1Z"/><path d="M42,10a4,4,0,0,1-4-4,1,1,0,0,0-1-1H11a1,1,0,0,0-1,1,4,4,0,0,1-4,4,1,1,0,0,0-1,1v8a1,1,0,0,0,1,1,4,4,0,0,1,4,4,1,1,0,0,0,1,1H37a1,1,0,0,0,1-1,4,4,0,0,1,4-4,1,1,0,0,0,1-1V11A1,1,0,0,0,42,10ZM11.92,23A6,6,0,0,0,7,18.08V11.92A6,6,0,0,0,11.92,7H18a10,10,0,0,0,0,16ZM24,23a8,8,0,1,1,8-8A8,8,0,0,1,24,23Zm17-4.92A6,6,0,0,0,36.08,23H30A10,10,0,0,0,30,7h6.11A6,6,0,0,0,41,11.92Z"/><rect height="2" width="2" x="5" y="5"/><rect height="2" width="2" x="41" y="5"/><rect height="2" width="2" x="41" y="23"/><rect height="2" width="2" x="5" y="23"/></g></svg>
